<?xml version="1.0" encoding="utf-8"?>
<!-- Generator: Adobe Illustrator 26.0.2, SVG Export Plug-In . SVG Version: 6.00 Build 0)  -->
<svg version="1.1" id="Capa_1" xmlns="http://www.w3.org/2000/svg" xmlns:xlink="http://www.w3.org/1999/xlink" x="0px" y="0px"
	 viewBox="0 0 24 24" style="enable-background:new 0 0 24 24;" xml:space="preserve">
<style type="text/css">
	.st0{fill-opacity:0;}
</style>
<g>
	<g>
		<rect class="st0" width="24" height="24"/>
		<path d="M14,5c0.2,0,0.5,0.1,0.6,0.2c0.4,0.4,0.5,1,0.1,1.4c0,0,0,0,0,0L10.3,12l4.3,5.4c0.3,0.4,0.3,1.1-0.1,1.4c0,0,0,0,0,0
			c-0.4,0.4-1,0.3-1.4-0.1c0,0,0,0,0-0.1l-4.8-6c-0.3-0.4-0.3-0.9,0-1.3l5-6C13.4,5.1,13.7,5,14,5z"/>
	</g>
</g>
</svg>
